<svg xmlns="http://www.w3.org/2000/svg" xmlns:xlink="http://www.w3.org/1999/xlink" width="120" zoomAndPan="magnify" viewBox="0 0 90 82.499998" height="110" preserveAspectRatio="xMidYMid meet" version="1.0"><defs><g/><clipPath id="70a734f535"><path d="M 0.269531 55 L 89.726562 55 L 89.726562 82.003906 L 0.269531 82.003906 Z M 0.269531 55 " clip-rule="nonzero"/></clipPath></defs><path fill="#ed5c01" d="M 43.835938 52.207031 C 43.835938 52.207031 49.027344 41.058594 59.292969 43.15625 C 69.5625 45.253906 66.46875 70.425781 33.128906 76.167969 C 33.128906 76.167969 55.539062 77.160156 70.886719 59.496094 C 86.234375 41.832031 60.175781 20.964844 43.617188 40.503906 C 43.617188 40.503906 34.269531 27.820312 25.503906 34.5 C 16.738281 41.179688 17.070312 61.382812 36.355469 69.148438 C 36.355469 69.148438 21.34375 50.863281 28.414062 43.667969 C 35.484375 36.472656 43.835938 52.207031 43.835938 52.207031 Z M 43.835938 52.207031 " fill-opacity="1" fill-rule="evenodd"/><path fill="#062d3e" d="M 40.105469 13.855469 C 40.226562 14.582031 40.292969 15.308594 40.308594 16.035156 C 40.324219 16.761719 40.292969 17.476562 40.207031 18.175781 C 40.121094 18.878906 39.988281 19.554688 39.804688 20.203125 C 39.621094 20.851562 39.390625 21.460938 39.117188 22.03125 C 38.84375 22.601562 38.527344 23.125 38.171875 23.59375 C 37.816406 24.066406 37.429688 24.480469 37.007812 24.832031 C 36.585938 25.183594 36.136719 25.472656 35.664062 25.695312 C 35.191406 25.917969 34.699219 26.070312 34.195312 26.152344 C 33.6875 26.234375 33.175781 26.242188 32.65625 26.183594 C 32.136719 26.121094 31.621094 25.992188 31.109375 25.789062 C 30.597656 25.585938 30.097656 25.320312 29.609375 24.984375 C 29.125 24.648438 28.660156 24.253906 28.21875 23.800781 C 27.78125 23.347656 27.371094 22.839844 26.992188 22.28125 C 26.613281 21.726562 26.269531 21.128906 25.96875 20.488281 C 25.667969 19.851562 25.40625 19.183594 25.195312 18.488281 C 24.980469 17.792969 24.8125 17.082031 24.695312 16.355469 C 24.578125 15.632812 24.511719 14.90625 24.496094 14.179688 C 24.476562 13.449219 24.511719 12.734375 24.597656 12.035156 C 24.679688 11.332031 24.816406 10.660156 25 10.007812 C 25.183594 9.359375 25.410156 8.75 25.683594 8.179688 C 25.960938 7.609375 26.273438 7.089844 26.628906 6.617188 C 26.984375 6.144531 27.375 5.734375 27.796875 5.378906 C 28.21875 5.027344 28.667969 4.738281 29.140625 4.515625 C 29.613281 4.296875 30.101562 4.144531 30.609375 4.0625 C 31.113281 3.980469 31.628906 3.96875 32.148438 4.027344 C 32.664062 4.089844 33.179688 4.222656 33.695312 4.421875 C 34.207031 4.625 34.707031 4.894531 35.191406 5.226562 C 35.679688 5.5625 36.140625 5.957031 36.582031 6.410156 C 37.023438 6.867188 37.433594 7.371094 37.8125 7.929688 C 38.191406 8.488281 38.53125 9.085938 38.835938 9.722656 C 39.136719 10.363281 39.394531 11.03125 39.609375 11.726562 C 39.824219 12.421875 39.988281 13.128906 40.105469 13.855469 Z M 40.105469 13.855469 " fill-opacity="1" fill-rule="nonzero"/><path fill="#062d3e" d="M 48.671875 11.972656 C 48.488281 12.757812 48.359375 13.546875 48.285156 14.34375 C 48.210938 15.140625 48.195312 15.925781 48.234375 16.699219 C 48.273438 17.472656 48.371094 18.222656 48.519531 18.949219 C 48.671875 19.675781 48.875 20.359375 49.132812 21.007812 C 49.390625 21.652344 49.695312 22.246094 50.050781 22.792969 C 50.402344 23.335938 50.796875 23.816406 51.234375 24.234375 C 51.667969 24.65625 52.140625 25.003906 52.640625 25.285156 C 53.140625 25.5625 53.667969 25.765625 54.214844 25.894531 C 54.761719 26.023438 55.324219 26.074219 55.898438 26.046875 C 56.472656 26.019531 57.046875 25.914062 57.625 25.734375 C 58.199219 25.550781 58.769531 25.296875 59.328125 24.964844 C 59.882812 24.636719 60.421875 24.238281 60.941406 23.773438 C 61.457031 23.308594 61.945312 22.785156 62.402344 22.203125 C 62.863281 21.621094 63.28125 20.992188 63.660156 20.316406 C 64.039062 19.640625 64.375 18.929688 64.664062 18.183594 C 64.949219 17.4375 65.1875 16.671875 65.371094 15.886719 C 65.554688 15.101562 65.683594 14.308594 65.757812 13.515625 C 65.832031 12.71875 65.847656 11.933594 65.808594 11.15625 C 65.769531 10.382812 65.671875 9.632812 65.523438 8.90625 C 65.371094 8.183594 65.167969 7.496094 64.910156 6.851562 C 64.652344 6.203125 64.347656 5.609375 63.992188 5.066406 C 63.640625 4.523438 63.246094 4.039062 62.808594 3.621094 C 62.375 3.203125 61.902344 2.851562 61.402344 2.574219 C 60.902344 2.292969 60.375 2.089844 59.828125 1.960938 C 59.28125 1.832031 58.71875 1.78125 58.144531 1.808594 C 57.570312 1.835938 56.996094 1.941406 56.417969 2.121094 C 55.84375 2.304688 55.273438 2.5625 54.714844 2.890625 C 54.160156 3.21875 53.621094 3.617188 53.101562 4.082031 C 52.585938 4.546875 52.097656 5.070312 51.640625 5.652344 C 51.179688 6.234375 50.761719 6.863281 50.382812 7.539062 C 50.003906 8.21875 49.667969 8.929688 49.378906 9.671875 C 49.09375 10.417969 48.855469 11.183594 48.671875 11.972656 Z M 48.671875 11.972656 " fill-opacity="1" fill-rule="nonzero"/><path fill="#062d3e" d="M 73.027344 18.382812 C 72.695312 18.929688 72.40625 19.496094 72.15625 20.078125 C 71.90625 20.660156 71.703125 21.25 71.542969 21.84375 C 71.382812 22.4375 71.273438 23.027344 71.210938 23.613281 C 71.148438 24.195312 71.132812 24.761719 71.171875 25.3125 C 71.207031 25.863281 71.292969 26.390625 71.425781 26.886719 C 71.5625 27.382812 71.742188 27.839844 71.96875 28.265625 C 72.195312 28.6875 72.464844 29.066406 72.773438 29.398438 C 73.085938 29.730469 73.433594 30.015625 73.816406 30.246094 C 74.195312 30.476562 74.609375 30.648438 75.046875 30.769531 C 75.488281 30.890625 75.945312 30.949219 76.425781 30.953125 C 76.90625 30.957031 77.398438 30.902344 77.898438 30.789062 C 78.402344 30.675781 78.902344 30.507812 79.410156 30.285156 C 79.914062 30.058594 80.410156 29.785156 80.894531 29.457031 C 81.382812 29.128906 81.851562 28.753906 82.304688 28.335938 C 82.757812 27.917969 83.183594 27.464844 83.582031 26.96875 C 83.980469 26.476562 84.34375 25.957031 84.675781 25.410156 C 85.007812 24.859375 85.296875 24.296875 85.546875 23.714844 C 85.796875 23.128906 86 22.542969 86.160156 21.945312 C 86.320312 21.351562 86.429688 20.761719 86.492188 20.179688 C 86.554688 19.59375 86.566406 19.027344 86.53125 18.476562 C 86.496094 17.925781 86.410156 17.402344 86.273438 16.90625 C 86.140625 16.410156 85.960938 15.949219 85.734375 15.527344 C 85.507812 15.105469 85.238281 14.726562 84.929688 14.390625 C 84.617188 14.058594 84.269531 13.777344 83.886719 13.546875 C 83.503906 13.316406 83.09375 13.140625 82.65625 13.019531 C 82.214844 12.902344 81.753906 12.839844 81.277344 12.835938 C 80.796875 12.832031 80.304688 12.886719 79.804688 13 C 79.300781 13.113281 78.796875 13.28125 78.292969 13.507812 C 77.789062 13.730469 77.292969 14.007812 76.808594 14.335938 C 76.320312 14.664062 75.847656 15.035156 75.398438 15.453125 C 74.945312 15.871094 74.519531 16.328125 74.121094 16.820312 C 73.722656 17.3125 73.359375 17.832031 73.027344 18.382812 Z M 73.027344 18.382812 " fill-opacity="1" fill-rule="nonzero"/><path fill="#062d3e" d="M 16.980469 19.976562 C 17.308594 20.523438 17.601562 21.089844 17.851562 21.671875 C 18.101562 22.253906 18.304688 22.84375 18.464844 23.4375 C 18.621094 24.03125 18.734375 24.621094 18.796875 25.207031 C 18.859375 25.789062 18.871094 26.359375 18.835938 26.910156 C 18.796875 27.460938 18.714844 27.984375 18.578125 28.480469 C 18.445312 28.976562 18.265625 29.4375 18.039062 29.859375 C 17.808594 30.28125 17.542969 30.660156 17.230469 30.992188 C 16.921875 31.324219 16.574219 31.609375 16.191406 31.839844 C 15.808594 32.070312 15.398438 32.246094 14.957031 32.363281 C 14.519531 32.484375 14.058594 32.542969 13.578125 32.546875 C 13.097656 32.550781 12.609375 32.496094 12.105469 32.382812 C 11.605469 32.269531 11.101562 32.101562 10.597656 31.878906 C 10.09375 31.652344 9.597656 31.378906 9.109375 31.050781 C 8.621094 30.722656 8.152344 30.347656 7.699219 29.929688 C 7.25 29.511719 6.824219 29.058594 6.425781 28.566406 C 6.027344 28.074219 5.660156 27.550781 5.332031 27.003906 C 5 26.457031 4.710938 25.890625 4.460938 25.308594 C 4.210938 24.726562 4.003906 24.136719 3.847656 23.542969 C 3.6875 22.945312 3.574219 22.355469 3.511719 21.773438 C 3.449219 21.1875 3.4375 20.621094 3.472656 20.070312 C 3.511719 19.519531 3.597656 18.996094 3.730469 18.5 C 3.863281 18.003906 4.046875 17.542969 4.273438 17.121094 C 4.5 16.699219 4.769531 16.320312 5.078125 15.988281 C 5.390625 15.652344 5.734375 15.371094 6.117188 15.140625 C 6.5 14.910156 6.910156 14.734375 7.351562 14.617188 C 7.789062 14.496094 8.25 14.433594 8.730469 14.433594 C 9.210938 14.429688 9.699219 14.484375 10.203125 14.59375 C 10.703125 14.707031 11.207031 14.878906 11.710938 15.101562 C 12.214844 15.324219 12.710938 15.601562 13.199219 15.929688 C 13.6875 16.257812 14.15625 16.628906 14.609375 17.046875 C 15.058594 17.464844 15.484375 17.921875 15.886719 18.414062 C 16.285156 18.90625 16.648438 19.425781 16.980469 19.976562 Z M 16.980469 19.976562 " fill-opacity="1" fill-rule="nonzero"/><g clip-path="url(#70a734f535)"><path stroke-linecap="butt" transform="matrix(0.745482, 0, 0, 0.745482, -2.363822, 65.426111)" fill="none" stroke-linejoin="miter" d="M 16.909881 1.995959 L 16.909881 15.530619 L 16.836522 15.530619 L 7.740057 7.314457 L 7.792456 15.001389 L 5.193466 15.001389 L 5.193466 1.482449 L 5.303503 1.482449 L 14.384249 9.824369 L 14.33185 1.995959 Z M 28.154705 7.277778 L 28.154705 15.001389 L 25.681472 15.001389 L 25.681472 14.047728 C 24.937406 14.823233 24.078063 15.210985 23.103442 15.210985 C 21.955904 15.210985 21.028441 14.870392 20.315815 14.189205 C 19.603189 13.502778 19.246876 12.491478 19.246876 11.150063 C 19.246876 10.3012 19.419792 9.551894 19.765626 8.912626 C 20.116699 8.273359 20.57781 7.775568 21.154199 7.419255 C 21.735828 7.068182 22.354136 6.890025 23.009123 6.890025 C 23.69555 6.890025 24.23526 6.994823 24.638732 7.199179 C 25.036964 7.403535 25.393278 7.69697 25.697192 8.074243 L 25.859629 7.277778 Z M 23.805588 13.198864 C 24.664932 13.198864 25.28848 12.811112 25.681472 12.030367 L 25.681472 10.144003 C 25.539995 9.76673 25.29372 9.462816 24.942646 9.24274 C 24.596813 9.017424 24.188101 8.902147 23.71651 8.902147 C 23.1768 8.902147 22.715689 9.106503 22.327936 9.504735 C 21.945424 9.902967 21.756787 10.411238 21.756787 11.024306 C 21.756787 11.427778 21.851106 11.794571 22.034502 12.129925 C 22.228378 12.465278 22.474654 12.727273 22.789048 12.91591 C 23.098202 13.104546 23.438795 13.198864 23.805588 13.198864 Z M 40.8667 6.890025 C 41.621246 6.890025 42.223834 7.104861 42.679706 7.529293 C 43.135577 7.948485 43.371372 8.509154 43.392332 9.206061 L 43.392332 15.001389 L 40.940059 15.001389 L 40.940059 10.227841 C 40.91386 9.840089 40.845741 9.551894 40.740943 9.358018 C 40.636145 9.164142 40.431789 9.054104 40.122635 9.027904 C 39.546246 9.027904 39.095614 9.310859 38.770741 9.871528 C 38.445867 10.426957 38.28867 11.081945 38.28867 11.83649 L 38.28867 15.001389 L 35.815437 15.001389 L 35.815437 10.227841 C 35.794478 9.840089 35.721119 9.551894 35.605841 9.358018 C 35.485324 9.164142 35.265248 9.054104 34.945614 9.027904 C 34.395425 9.027904 33.960513 9.310859 33.640879 9.871528 C 33.321245 10.426957 33.164048 11.071465 33.164048 11.805051 L 33.164048 15.001389 L 30.690816 15.001389 L 30.690816 7.277778 L 32.933493 7.277778 L 33.111649 8.498674 C 33.735197 7.424495 34.66266 6.890025 35.899276 6.890025 C 36.528064 6.890025 37.041574 7.015783 37.445046 7.267298 C 37.853758 7.524053 38.136713 7.896086 38.28867 8.388636 C 38.618784 7.932765 39.006536 7.565972 39.462407 7.293498 C 39.913039 7.026263 40.38463 6.890025 40.8667 6.890025 Z M 49.779769 13.109786 C 50.27232 13.109786 50.78583 12.936869 51.31506 12.596276 L 52.410199 14.43548 C 51.991007 14.671276 51.540375 14.859912 51.068784 15.001389 C 50.597194 15.142867 50.151802 15.210985 49.72737 15.210985 C 48.810388 15.210985 48.013923 15.038069 47.348456 14.686995 C 46.682989 14.341162 46.179958 13.853852 45.839365 13.225064 C 45.498771 12.591036 45.325855 11.87317 45.325855 11.060985 C 45.325855 10.30644 45.524971 9.609533 45.917963 8.975505 C 46.310956 8.336237 46.850665 7.833207 47.531852 7.461174 C 48.218279 7.094381 48.967585 6.905745 49.779769 6.905745 C 50.885388 6.905745 51.79713 7.230619 52.504517 7.880366 C 53.217143 8.530114 53.683494 9.452336 53.89309 10.652273 L 48.239239 12.454798 C 48.621751 12.88971 49.135262 13.109786 49.779769 13.109786 Z M 49.585893 8.828788 C 49.030464 8.828788 48.590312 9.022664 48.254959 9.399937 C 47.930085 9.77721 47.767648 10.28548 47.767648 10.919508 L 47.767648 11.076705 L 51.157863 9.929167 C 50.906348 9.195581 50.387598 8.828788 49.585893 8.828788 Z M 75.22996 1.46149 L 75.22996 15.001389 L 72.66765 15.001389 L 72.66765 8.797349 L 68.428571 14.823233 L 68.391892 14.823233 L 64.31001 9.185101 L 64.31001 15.001389 L 61.836778 15.001389 L 61.836778 1.46149 L 61.852497 1.46149 L 68.444291 10.80947 L 75.193281 1.46149 Z M 86.155151 7.277778 L 81.172006 18.711238 L 78.782612 18.711238 L 80.637537 14.592677 L 77.074405 7.277778 L 79.846312 7.277778 L 81.879393 11.83649 L 83.928193 7.277778 Z M 97.682929 1.995959 C 99.270619 1.995959 100.501995 2.383712 101.371818 3.169697 C 102.246882 3.955682 102.681793 5.019381 102.681793 6.376515 C 102.681793 7.15202 102.529836 7.880366 102.231162 8.561553 C 101.932488 9.2375 101.439937 9.798169 100.76399 10.233081 C 100.088043 10.667993 99.21298 10.882829 98.1388 10.882829 L 96.304836 10.882829 L 96.304836 15.001389 L 93.742525 15.001389 L 93.742525 1.995959 Z M 98.123081 8.388636 C 98.605151 8.388636 98.992904 8.283838 99.286338 8.069003 C 99.585013 7.848927 99.794609 7.592172 99.925606 7.298737 C 100.056604 7.005303 100.119482 6.722348 100.119482 6.449874 C 100.119482 5.988763 99.983245 5.543371 99.71077 5.118939 C 99.438295 4.684028 98.919545 4.469192 98.1388 4.469192 L 96.304836 4.469192 L 96.304836 8.388636 Z M 108.414243 13.109786 C 108.912034 13.109786 109.425544 12.936869 109.954773 12.596276 L 111.049912 14.43548 C 110.625481 14.671276 110.180089 14.859912 109.708498 15.001389 C 109.236907 15.142867 108.786276 15.210985 108.367084 15.210985 C 107.444862 15.210985 106.648397 15.038069 105.98293 14.686995 C 105.317463 14.341162 104.814432 13.853852 104.473839 13.225064 C 104.133245 12.591036 103.965569 11.87317 103.965569 11.060985 C 103.965569 10.30644 104.159445 9.609533 104.557677 8.975505 C 104.95067 8.336237 105.485139 7.833207 106.171566 7.461174 C 106.852753 7.094381 107.602059 6.905745 108.414243 6.905745 C 109.525102 6.905745 110.431604 7.230619 111.144231 7.880366 C 111.856857 8.530114 112.317968 9.452336 112.532804 10.652273 L 106.878953 12.454798 C 107.256225 12.88971 107.769735 13.109786 108.414243 13.109786 Z M 108.220367 8.828788 C 107.664937 8.828788 107.224786 9.022664 106.894672 9.399937 C 106.564559 9.77721 106.402122 10.28548 106.402122 10.919508 L 106.402122 11.076705 L 109.792337 9.929167 C 109.546061 9.195581 109.022071 8.828788 108.220367 8.828788 Z M 117.526428 3.887563 L 117.526428 7.241099 L 119.397072 7.241099 L 119.397072 9.169381 L 117.526428 9.169381 L 117.526428 15.001389 L 115.053196 15.001389 L 115.053196 9.169381 L 113.848019 9.169381 L 113.848019 7.241099 L 115.053196 7.241099 L 115.053196 3.887563 Z M 117.526428 3.887563 " stroke="#062d3e" stroke-width="2.673238" stroke-opacity="1" stroke-miterlimit="4"/></g><g fill="#ed5c01" fill-opacity="1"><g transform="translate(0.257013, 76.608339)"><g><path d="M 9.984375 -9.6875 L 9.984375 0.390625 L 9.9375 0.390625 L 3.140625 -5.734375 L 3.1875 0 L 1.25 0 L 1.25 -10.078125 L 1.328125 -10.078125 L 8.09375 -3.859375 L 8.0625 -9.6875 Z M 9.984375 -9.6875 "/></g></g></g><g fill="#ed5c01" fill-opacity="1"><g transform="translate(11.484605, 76.608339)"><g><path d="M 7.140625 -5.75 L 7.140625 0 L 5.296875 0 L 5.296875 -0.71875 C 4.742188 -0.132812 4.101562 0.15625 3.375 0.15625 C 2.519531 0.15625 1.828125 -0.0976562 1.296875 -0.609375 C 0.765625 -1.117188 0.5 -1.875 0.5 -2.875 C 0.5 -3.5 0.628906 -4.050781 0.890625 -4.53125 C 1.148438 -5.007812 1.492188 -5.378906 1.921875 -5.640625 C 2.347656 -5.910156 2.8125 -6.046875 3.3125 -6.046875 C 3.8125 -6.046875 4.210938 -5.96875 4.515625 -5.8125 C 4.816406 -5.65625 5.082031 -5.4375 5.3125 -5.15625 L 5.421875 -5.75 Z M 3.90625 -1.34375 C 4.539062 -1.34375 5.003906 -1.632812 5.296875 -2.21875 L 5.296875 -3.625 C 5.191406 -3.90625 5.007812 -4.128906 4.75 -4.296875 C 4.488281 -4.460938 4.179688 -4.546875 3.828125 -4.546875 C 3.429688 -4.546875 3.085938 -4.394531 2.796875 -4.09375 C 2.515625 -3.800781 2.375 -3.425781 2.375 -2.96875 C 2.375 -2.664062 2.441406 -2.390625 2.578125 -2.140625 C 2.722656 -1.890625 2.910156 -1.691406 3.140625 -1.546875 C 3.367188 -1.410156 3.625 -1.34375 3.90625 -1.34375 Z M 3.90625 -1.34375 "/></g></g></g><g fill="#ed5c01" fill-opacity="1"><g transform="translate(19.566365, 76.608339)"><g><path d="M 8.53125 -6.046875 C 9.09375 -6.046875 9.539062 -5.882812 9.875 -5.5625 C 10.21875 -5.25 10.398438 -4.835938 10.421875 -4.328125 L 10.421875 0 L 8.59375 0 L 8.59375 -3.5625 C 8.570312 -3.84375 8.519531 -4.054688 8.4375 -4.203125 C 8.363281 -4.347656 8.210938 -4.429688 7.984375 -4.453125 C 7.554688 -4.453125 7.21875 -4.242188 6.96875 -3.828125 C 6.726562 -3.410156 6.609375 -2.921875 6.609375 -2.359375 L 6.609375 0 L 4.765625 0 L 4.765625 -3.5625 C 4.742188 -3.84375 4.691406 -4.054688 4.609375 -4.203125 C 4.523438 -4.347656 4.363281 -4.429688 4.125 -4.453125 C 3.707031 -4.453125 3.378906 -4.242188 3.140625 -3.828125 C 2.910156 -3.410156 2.796875 -2.929688 2.796875 -2.390625 L 2.796875 0 L 0.953125 0 L 0.953125 -5.75 L 2.625 -5.75 L 2.75 -4.84375 C 3.21875 -5.644531 3.910156 -6.046875 4.828125 -6.046875 C 5.296875 -6.046875 5.679688 -5.953125 5.984375 -5.765625 C 6.285156 -5.578125 6.492188 -5.296875 6.609375 -4.921875 C 6.859375 -5.265625 7.148438 -5.535156 7.484375 -5.734375 C 7.828125 -5.941406 8.175781 -6.046875 8.53125 -6.046875 Z M 8.53125 -6.046875 "/></g></g></g><g fill="#ed5c01" fill-opacity="1"><g transform="translate(30.925579, 76.608339)"><g><path d="M 3.8125 -1.40625 C 4.1875 -1.40625 4.570312 -1.535156 4.96875 -1.796875 L 5.78125 -0.421875 C 5.46875 -0.242188 5.132812 -0.101562 4.78125 0 C 4.425781 0.101562 4.09375 0.15625 3.78125 0.15625 C 3.09375 0.15625 2.5 0.0234375 2 -0.234375 C 1.507812 -0.492188 1.132812 -0.859375 0.875 -1.328125 C 0.625 -1.796875 0.5 -2.332031 0.5 -2.9375 C 0.5 -3.5 0.644531 -4.015625 0.9375 -4.484375 C 1.238281 -4.960938 1.640625 -5.335938 2.140625 -5.609375 C 2.648438 -5.890625 3.207031 -6.03125 3.8125 -6.03125 C 4.644531 -6.03125 5.328125 -5.785156 5.859375 -5.296875 C 6.390625 -4.816406 6.734375 -4.128906 6.890625 -3.234375 L 2.671875 -1.890625 C 2.953125 -1.566406 3.332031 -1.40625 3.8125 -1.40625 Z M 3.671875 -4.59375 C 3.265625 -4.59375 2.9375 -4.453125 2.6875 -4.171875 C 2.4375 -3.890625 2.3125 -3.515625 2.3125 -3.046875 L 2.3125 -2.921875 L 4.84375 -3.78125 C 4.664062 -4.320312 4.273438 -4.59375 3.671875 -4.59375 Z M 3.671875 -4.59375 "/></g></g></g><g fill="#ed5c01" fill-opacity="1"><g transform="translate(38.204424, 76.608339)"><g/></g></g><g fill="#ed5c01" fill-opacity="1"><g transform="translate(42.482232, 76.608339)"><g><path d="M 11.234375 -10.09375 L 11.234375 0 L 9.328125 0 L 9.328125 -4.625 L 6.171875 -0.125 L 6.140625 -0.125 L 3.09375 -4.328125 L 3.09375 0 L 1.25 0 L 1.25 -10.09375 L 1.265625 -10.09375 L 6.171875 -3.125 L 11.203125 -10.09375 Z M 11.234375 -10.09375 "/></g></g></g><g fill="#ed5c01" fill-opacity="1"><g transform="translate(54.96026, 76.608339)"><g><path d="M 6.90625 -5.75 L 3.1875 2.765625 L 1.40625 2.765625 L 2.796875 -0.296875 L 0.125 -5.75 L 2.203125 -5.75 L 3.71875 -2.359375 L 5.25 -5.75 Z M 6.90625 -5.75 "/></g></g></g><g fill="#ed5c01" fill-opacity="1"><g transform="translate(61.989023, 76.608339)"><g/></g></g><g fill="#ed5c01" fill-opacity="1"><g transform="translate(66.26683, 76.608339)"><g><path d="M 4.1875 -9.6875 C 5.375 -9.6875 6.289062 -9.394531 6.9375 -8.8125 C 7.59375 -8.226562 7.921875 -7.429688 7.921875 -6.421875 C 7.921875 -5.847656 7.804688 -5.304688 7.578125 -4.796875 C 7.359375 -4.296875 6.992188 -3.878906 6.484375 -3.546875 C 5.984375 -3.222656 5.332031 -3.0625 4.53125 -3.0625 L 3.15625 -3.0625 L 3.15625 0 L 1.25 0 L 1.25 -9.6875 Z M 4.515625 -4.921875 C 4.878906 -4.921875 5.171875 -5 5.390625 -5.15625 C 5.609375 -5.320312 5.765625 -5.515625 5.859375 -5.734375 C 5.953125 -5.960938 6 -6.175781 6 -6.375 C 6 -6.71875 5.898438 -7.046875 5.703125 -7.359375 C 5.503906 -7.679688 5.113281 -7.84375 4.53125 -7.84375 L 3.15625 -7.84375 L 3.15625 -4.921875 Z M 4.515625 -4.921875 "/></g></g></g><g fill="#ed5c01" fill-opacity="1"><g transform="translate(74.638168, 76.608339)"><g><path d="M 3.8125 -1.40625 C 4.1875 -1.40625 4.570312 -1.535156 4.96875 -1.796875 L 5.78125 -0.421875 C 5.46875 -0.242188 5.132812 -0.101562 4.78125 0 C 4.425781 0.101562 4.09375 0.15625 3.78125 0.15625 C 3.09375 0.15625 2.5 0.0234375 2 -0.234375 C 1.507812 -0.492188 1.132812 -0.859375 0.875 -1.328125 C 0.625 -1.796875 0.5 -2.332031 0.5 -2.9375 C 0.5 -3.5 0.644531 -4.015625 0.9375 -4.484375 C 1.238281 -4.960938 1.640625 -5.335938 2.140625 -5.609375 C 2.648438 -5.890625 3.207031 -6.03125 3.8125 -6.03125 C 4.644531 -6.03125 5.328125 -5.785156 5.859375 -5.296875 C 6.390625 -4.816406 6.734375 -4.128906 6.890625 -3.234375 L 2.671875 -1.890625 C 2.953125 -1.566406 3.332031 -1.40625 3.8125 -1.40625 Z M 3.671875 -4.59375 C 3.265625 -4.59375 2.9375 -4.453125 2.6875 -4.171875 C 2.4375 -3.890625 2.3125 -3.515625 2.3125 -3.046875 L 2.3125 -2.921875 L 4.84375 -3.78125 C 4.664062 -4.320312 4.273438 -4.59375 3.671875 -4.59375 Z M 3.671875 -4.59375 "/></g></g></g><g fill="#ed5c01" fill-opacity="1"><g transform="translate(81.917013, 76.608339)"><g><path d="M 3.328125 -8.28125 L 3.328125 -5.78125 L 4.734375 -5.78125 L 4.734375 -4.34375 L 3.328125 -4.34375 L 3.328125 0 L 1.484375 0 L 1.484375 -4.34375 L 0.59375 -4.34375 L 0.59375 -5.78125 L 1.484375 -5.78125 L 1.484375 -8.28125 Z M 3.328125 -8.28125 "/></g></g></g></svg>